<?xml version="1.0" encoding="utf-8"?>
<!-- Generator: Adobe Illustrator 23.0.0, SVG Export Plug-In . SVG Version: 6.00 Build 0)  -->
<svg version="1.1" id="图层_1" xmlns="http://www.w3.org/2000/svg" xmlns:xlink="http://www.w3.org/1999/xlink" x="0px" y="0px"
	 viewBox="0 0 128 128" style="enable-background:new 0 0 128 128;" xml:space="preserve">
<path d="M126.2,63.8l-58-58c-2.3-2.3-6.1-2.3-8.4,0l-58,58c-1.7,1.7-0.5,4.7,2,4.7h13.8v40.9c0,8,6.5,14.5,14.5,14.5h14.6
	c3.2,0,5.8-2.6,5.8-5.8V89.2c0-1.6,1.3-2.9,2.9-2.9h17.3c1.6,0,2.9,1.3,2.9,2.9v28.9c0,3.2,2.6,5.8,5.8,5.8h14.6
	c8,0,14.5-6.5,14.5-14.5V68.6h13.8C126.7,68.6,127.9,65.6,126.2,63.8L126.2,63.8z M126.2,63.8"/>
</svg>
