<?xml version="1.0" encoding="utf-8"?>
<!-- Generator: Adobe Illustrator 23.0.0, SVG Export Plug-In . SVG Version: 6.00 Build 0)  -->
<svg version="1.1" id="图层_1" xmlns="http://www.w3.org/2000/svg" xmlns:xlink="http://www.w3.org/1999/xlink" x="0px" y="0px"
	 viewBox="0 0 128 128" style="enable-background:new 0 0 128 128;" xml:space="preserve">
<path d="M124.4,100.8L75,15.1C72.9,9,66.3,5.8,60.2,7.9c-3.4,1.2-6.1,3.8-7.2,7.2L3.6,100.8c-6.1,10.4-1.2,18.9,11,18.9h98.8
	C125.5,119.7,130.4,111.2,124.4,100.8L124.4,100.8z M57.2,39.4c3.6-3.8,9.6-3.8,13.4-0.2c0.1,0.1,0.1,0.1,0.2,0.2
	c1.8,1.9,2.8,4.5,2.7,7.1c0,2.4-3.8,20.5-4.9,33.6h-8.9C58.5,67,54.5,49,54.5,46.6C54.4,43.9,55.4,41.4,57.2,39.4L57.2,39.4z
	 M70.7,102c-3.8,3.6-9.6,3.6-13.4,0c-3.7-3.7-3.7-9.7,0-13.4c3.7-3.7,9.7-3.7,13.4,0C74.4,92.3,74.4,98.3,70.7,102L70.7,102z
	 M70.7,102"/>
</svg>
