<?xml version="1.0" encoding="utf-8"?>
<!-- Generator: Adobe Illustrator 23.0.0, SVG Export Plug-In . SVG Version: 6.00 Build 0)  -->
<svg version="1.1" id="图层_1" xmlns="http://www.w3.org/2000/svg" xmlns:xlink="http://www.w3.org/1999/xlink" x="0px" y="0px"
	 viewBox="0 0 128 128" style="enable-background:new 0 0 128 128;" xml:space="preserve">
<path d="M127,41.2c-10.3-16.6-10.1-16.9-10.1-16.9S81.2,33.9,74.6,1H54c0,0-5.7,33-42.1,23.2C1.4,41.1,1,41.6,1,41.6
	c0,0,28.5,19.2,0,45.2l11.1,17.5c0,0,31.5-13.1,41.8,22.6h20.9c0,0,6.5-32.8,41.9-23.1c10.1-16.6,10.2-16.7,10.2-16.7
	S100.1,65,127,41.2L127,41.2z M63.8,87.2c-13.3,0-24.1-10.4-24.1-23.2c0-12.8,10.8-23.2,24.1-23.2c13.3,0,24.1,10.4,24.1,23.2
	C87.9,76.8,77.1,87.2,63.8,87.2L63.8,87.2z M63.8,87.2"/>
</svg>
