<?xml version="1.0" encoding="utf-8"?>
<!-- Generator: Adobe Illustrator 23.0.0, SVG Export Plug-In . SVG Version: 6.00 Build 0)  -->
<svg version="1.1" id="图层_1" xmlns="http://www.w3.org/2000/svg" xmlns:xlink="http://www.w3.org/1999/xlink" x="0px" y="0px"
	 viewBox="0 0 128 128" style="enable-background:new 0 0 128 128;" xml:space="preserve">
<path d="M39.8,1H20.4C9.7,1,1,9.7,1,20.4v19.4c0,10.7,8.7,19.4,19.4,19.4h19.4c10.7,0,19.4-8.7,19.4-19.4V20.4
	C59.2,9.7,50.4,1,39.8,1L39.8,1z M107.6,1H88.2C77.6,1,68.8,9.7,68.8,20.4v19.4c0,10.7,8.7,19.4,19.4,19.4h19.4
	c10.7,0,19.4-8.7,19.4-19.4V20.4C127,9.7,118.3,1,107.6,1L107.6,1z M39.8,68.8H20.4C9.7,68.8,1,77.6,1,88.2v19.4
	C1,118.3,9.7,127,20.4,127h19.4c10.7,0,19.4-8.7,19.4-19.4V88.2C59.2,77.6,50.4,68.8,39.8,68.8L39.8,68.8z M107.6,68.8H88.2
	c-10.7,0-19.4,8.7-19.4,19.4v19.4c0,10.7,8.7,19.4,19.4,19.4h19.4c10.7,0,19.4-8.7,19.4-19.4V88.2C127,77.6,118.3,68.8,107.6,68.8
	L107.6,68.8z M107.6,68.8"/>
</svg>
