<?xml version="1.0" encoding="utf-8"?>
<!-- Generator: Adobe Illustrator 23.0.0, SVG Export Plug-In . SVG Version: 6.00 Build 0)  -->
<svg version="1.1" id="图层_1" xmlns="http://www.w3.org/2000/svg" xmlns:xlink="http://www.w3.org/1999/xlink" x="0px" y="0px"
	 viewBox="0 0 128 128" style="enable-background:new 0 0 128 128;" xml:space="preserve">
<path d="M91.5,64.1c0-1.9,1.5-3.5,3.5-3.5h8.5c-1.7-19.1-16.9-34.3-35.9-35.9v7.8c0,1.9-1.5,3.5-3.5,3.5c-1.9,0-3.5-1.5-3.5-3.5
	v-7.8c-19,1.7-34.2,16.9-35.9,35.9h8.4c1.9,0,3.5,1.5,3.5,3.5c0,1.9-1.5,3.5-3.5,3.5h-8.4c1.7,19.1,16.9,34.3,35.9,35.9v-8.1
	c0-1.9,1.5-3.5,3.5-3.5c1.9,0,3.4,1.5,3.4,3.5v8.1c19.1-1.7,34.3-16.9,35.9-35.9h-8.5C93,67.5,91.5,66,91.5,64.1L91.5,64.1z"/>
<path d="M64,1C29.2,1,1,29.2,1,64c0,34.8,28.2,63,63,63c34.8,0,63-28.2,63-63C127,29.2,98.8,1,64,1L64,1z M114,67.5h-3.7
	c-0.4,5-1.5,10-3.5,14.6c-2.3,5.5-5.7,10.5-10,14.8c-4.3,4.3-9.2,7.6-14.8,10c-4.7,2-9.6,3.1-14.6,3.5v3.5c0,1.9-1.5,3.5-3.5,3.5
	c-1.9,0-3.5-1.5-3.5-3.5v-3.5c-5-0.4-10-1.5-14.6-3.5c-5.5-2.3-10.5-5.7-14.8-10c-4.3-4.3-7.6-9.2-10-14.8c-2-4.7-3.2-9.6-3.5-14.6
	h-3.8c-1.9,0-3.5-1.5-3.5-3.5c0-1.9,1.5-3.5,3.5-3.5h3.8c0.4-5,1.5-10,3.5-14.6c2.3-5.5,5.7-10.5,10-14.8c4.3-4.3,9.2-7.6,14.8-10
	c4.7-2,9.6-3.2,14.6-3.5V14c0-1.9,1.5-3.5,3.5-3.5c1.9,0,3.5,1.5,3.5,3.5v3.7c5.1,0.4,10,1.5,14.6,3.5c5.5,2.3,10.5,5.7,14.8,10
	c4.3,4.3,7.6,9.2,10,14.8c2,4.7,3.2,9.6,3.5,14.6h3.7c1.9,0,3.5,1.5,3.5,3.5C117.5,66,116,67.5,114,67.5L114,67.5z M114,67.5"/>
</svg>
