<?xml version="1.0" encoding="utf-8"?>
<!-- Generator: Adobe Illustrator 23.0.0, SVG Export Plug-In . SVG Version: 6.00 Build 0)  -->
<svg version="1.1" id="图层_1" xmlns="http://www.w3.org/2000/svg" xmlns:xlink="http://www.w3.org/1999/xlink" x="0px" y="0px"
	 viewBox="0 0 128 128" style="enable-background:new 0 0 128 128;" xml:space="preserve">
<g>
	<path d="M63.9,1L63.9,1c-0.1,0-0.1,0-0.2,0C29,1.1,0.9,29.2,0.9,63.9c0,34.7,28.1,62.9,62.8,63c0,0,0,0,0.1,0h0.1
		c34.8,0,63-28.2,63-63C126.9,29.2,98.7,1,63.9,1L63.9,1z M63.9,121.9L63.9,121.9c-0.1,0-0.1,0-0.1,0C31.8,121.8,6,95.9,6,63.9
		C6,32,31.8,6.1,63.7,6c0,0,0,0,0.1,0h0.1c32,0,57.9,25.9,57.9,57.9C121.8,95.9,95.9,121.9,63.9,121.9L63.9,121.9z M63.9,121.9"/>
	<path d="M83.9,38.5c-5.6,1.4-11.5,2.2-17.5,2.3v20.6h20.5C86.7,52.9,85.7,45.2,83.9,38.5L83.9,38.5z"/>
	<path d="M66.4,11.4v24.8c5.6-0.2,11-0.9,16.3-2.2C78.7,21.5,72.5,13.3,66.4,11.4L66.4,11.4z"/>
	<path d="M45,34c5.3,1.3,10.8,2,16.4,2.2V11.4C55.2,13.1,48.9,21.4,45,34L45,34z"/>
	<path d="M101.6,26.8c-6.8-7-15.6-12-25.4-14.4c4.5,4.6,8.2,11.7,10.9,20.4C92.2,31.3,97,29.3,101.6,26.8L101.6,26.8z"/>
	<path d="M91.5,61.4h25.2c-0.6-11.8-4.9-22.5-12-31.1c-5.2,2.8-10.6,5.2-16.4,6.9C90.2,44.5,91.4,52.7,91.5,61.4L91.5,61.4z"/>
	<path d="M40.7,61.4h20.6V40.8c-6.1-0.2-12-1-17.7-2.4C42,45.2,40.9,52.9,40.7,61.4L40.7,61.4z"/>
	<path d="M86.9,66.5H66.4v20.6c6,0.2,11.9,1,17.5,2.4C85.7,82.7,86.7,74.9,86.9,66.5L86.9,66.5z"/>
	<path d="M43.7,89.4c5.7-1.4,11.6-2.2,17.7-2.4V66.5H40.7C40.9,75,42,82.7,43.7,89.4L43.7,89.4z"/>
	<path d="M61.4,116.5V91.7c-5.6,0.2-11.1,0.9-16.4,2.2C48.9,106.5,55.2,114.8,61.4,116.5L61.4,116.5z"/>
	<path d="M76.2,115.4c9.8-2.4,18.6-7.4,25.4-14.4c-4.6-2.5-9.5-4.5-14.5-6C84.5,103.7,80.7,110.8,76.2,115.4L76.2,115.4z"/>
	<path d="M51.4,12.5c-9.7,2.4-18.4,7.4-25.2,14.3c4.6,2.4,9.4,4.4,14.3,5.9C43.2,24.2,46.9,17.1,51.4,12.5L51.4,12.5z"/>
	<path d="M88.4,90.6c5.7,1.7,11.2,4.1,16.4,6.9c7-8.5,11.4-19.3,12-31.1H91.5C91.4,75.2,90.2,83.3,88.4,90.6L88.4,90.6z"/>
	<path d="M66.4,91.7v24.8c6.1-1.8,12.3-10.1,16.3-22.6C77.4,92.6,72,91.8,66.4,91.7L66.4,91.7z"/>
	<path d="M39.2,37.2c-5.7-1.7-11.1-4-16.3-6.9c-7,8.5-11.4,19.3-12,31.1h25.1C36.3,52.7,37.4,44.5,39.2,37.2L39.2,37.2z"/>
	<path d="M36.1,66.5H11C11.6,78.2,16,89,23,97.5c5.2-2.8,10.6-5.1,16.3-6.9C37.4,83.4,36.3,75.2,36.1,66.5L36.1,66.5z"/>
	<path d="M26.1,101c6.8,6.9,15.5,12,25.2,14.4c-4.4-4.6-8.2-11.7-10.9-20.3C35.5,96.6,30.7,98.6,26.1,101L26.1,101z"/>
	<path d="M26.1,101"/>
</g>
</svg>
