<?xml version="1.0" encoding="utf-8"?>
<!-- Generator: Adobe Illustrator 23.0.0, SVG Export Plug-In . SVG Version: 6.00 Build 0)  -->
<svg version="1.1" id="图层_1" xmlns="http://www.w3.org/2000/svg" xmlns:xlink="http://www.w3.org/1999/xlink" x="0px" y="0px"
	 viewBox="0 0 128 128" style="enable-background:new 0 0 128 128;" xml:space="preserve">
<path d="M0.9,86.4v11.3c0,4.9,3.8,8.9,8.5,8.9h41.9v13.3H32.1c-3.4,0-6.8-0.1-10.2,0h-0.1c-1.8,0-3.5,1.6-3.4,3.5
	c0.1,1.9,1.5,3.5,3.4,3.5h74.1c3.4,0,6.8,0.1,10.2,0h0.1c1.8,0,3.5-1.6,3.4-3.5c-0.1-1.9-1.5-3.5-3.4-3.5H76.6v-13.3h41.9
	c4.7,0,8.4-4,8.4-8.9V86.4H0.9z"/>
<path d="M118.7,1H9.4C4.8,1,1,4.8,1,9.5v70.4h126.1V9.5C127.1,4.8,123.3,1,118.7,1z M104.7,29.1c-0.8,2.7-3.3,4.5-6.1,4.5l-1,1.1
	L86.8,46.6l-5.2,5.7c0,0.2,0,0.3,0,0.5c0,2.8-1.6,5.3-4.1,6.5c-2.5,1.2-5.5,0.8-7.6-1c-2.2-1.8-3.1-4.6-2.4-7.3l-7.9-9.2l-5.4-6.4
	c-1,0.2-2.1,0.2-3.1,0l-0.8,0.8l-10.1,9.8l-4.3,4.2c0.6,2.8-0.7,5.6-3.2,7c-2.5,1.4-5.5,0.9-7.6-1c-2-2-2.5-5-1.2-7.5
	c1.3-2.5,4.1-3.9,6.9-3.3l0.4-0.4l10.1-9.8l4.5-4.4c-0.9-2.7-0.2-5.7,2-7.6c2.1-1.9,5.1-2.4,7.8-1.3c2.6,1.1,4.3,3.7,4.3,6.6
	c0,0.5-0.1,1.1-0.2,1.6l1.5,1.8l9.8,11.5l2.1,2.4c0.5-0.1,0.9-0.1,1.4-0.1c1.1,0,2.2,0.2,3.1,0.7l10.8-11.8c1.4-1.6,2.9-3.2,4.3-4.7
	c-1.1-2.6-0.3-5.6,1.8-7.4c2.2-1.8,5.3-1.9,7.6-0.4C104.5,23.5,105.5,26.4,104.7,29.1z"/>
<path d="M98.6,33.7"/>
</svg>
